name rise43.5482peak65.4966fall89.1036.mot
datacolumns 19
datarows 21
range 12.52995300000000 12.56327700000000
endheader
time	ground_force1_vx	ground_force1_vy	ground_force1_vz	ground_force1_px	ground_force1_py	ground_force1_pz	ground_force2_vx	ground_force2_vy	ground_force2_vz	ground_force2_px	ground_force2_py	ground_force2_pz	ground_torque1_x	ground_torque1_y	ground_torque1_z	ground_torque2_x	ground_torque2_y	ground_torque2_z	
12.52995300000000	5.76332700000000	699.32481099999995	42.05052900000000	0.16565800000000	0.00000000000000	0.11248500000000	0.00000000000000	0.00000000000000	0.00000000000000	0.00000000000000	0.00000000000000	0.00000000000000	0.00000000000000	11.46282500000000	0.00000000000000	0.00000000000000	0.00000000000000	0.00000000000000	
12.53161400000000	5.30186800000000	700.06010600000002	42.05315200000000	0.16482200000000	0.00000000000000	0.11245600000000	0.00000000000000	0.00000000000000	0.00000000000000	0.00000000000000	0.00000000000000	0.00000000000000	0.00000000000000	11.54759800000000	0.00000000000000	0.00000000000000	0.00000000000000	0.00000000000000	
12.53328400000000	4.83024200000000	700.82685600000002	42.05562000000000	0.16398700000000	0.00000000000000	0.11242700000000	0.00000000000000	0.00000000000000	0.00000000000000	0.00000000000000	0.00000000000000	0.00000000000000	0.00000000000000	11.63495400000000	0.00000000000000	0.00000000000000	0.00000000000000	0.00000000000000	
12.53494500000000	4.34858600000000	701.62314200000003	42.05784200000000	0.16315300000000	0.00000000000000	0.11239700000000	0.00000000000000	0.00000000000000	0.00000000000000	0.00000000000000	0.00000000000000	0.00000000000000	0.00000000000000	11.72479300000000	0.00000000000000	0.00000000000000	0.00000000000000	0.00000000000000	
12.53661600000000	3.85705600000000	702.44711700000005	42.05975300000000	0.16232000000000	0.00000000000000	0.11236700000000	0.00000000000000	0.00000000000000	0.00000000000000	0.00000000000000	0.00000000000000	0.00000000000000	0.00000000000000	11.81702200000000	0.00000000000000	0.00000000000000	0.00000000000000	0.00000000000000	
12.53828100000000	3.35582000000000	703.29702299999997	42.06130800000000	0.16148900000000	0.00000000000000	0.11233600000000	0.00000000000000	0.00000000000000	0.00000000000000	0.00000000000000	0.00000000000000	0.00000000000000	0.00000000000000	11.91154800000000	0.00000000000000	0.00000000000000	0.00000000000000	0.00000000000000	
12.53995100000000	2.84506100000000	704.17118800000003	42.06248700000000	0.16065800000000	0.00000000000000	0.11230500000000	0.00000000000000	0.00000000000000	0.00000000000000	0.00000000000000	0.00000000000000	0.00000000000000	0.00000000000000	12.00828400000000	0.00000000000000	0.00000000000000	0.00000000000000	0.00000000000000	
12.54161600000000	2.32497300000000	705.06803500000001	42.06329100000000	0.15983000000000	0.00000000000000	0.11227300000000	0.00000000000000	0.00000000000000	0.00000000000000	0.00000000000000	0.00000000000000	0.00000000000000	0.00000000000000	12.10714200000000	0.00000000000000	0.00000000000000	0.00000000000000	0.00000000000000	
12.54327900000000	1.79576500000000	705.98608500000000	42.06374200000000	0.15900200000000	0.00000000000000	0.11224100000000	0.00000000000000	0.00000000000000	0.00000000000000	0.00000000000000	0.00000000000000	0.00000000000000	0.00000000000000	12.20803900000000	0.00000000000000	0.00000000000000	0.00000000000000	0.00000000000000	
12.54494400000000	1.25765600000000	706.92395999999997	42.06388500000000	0.15817600000000	0.00000000000000	0.11220900000000	0.00000000000000	0.00000000000000	0.00000000000000	0.00000000000000	0.00000000000000	0.00000000000000	0.00000000000000	12.31089200000000	0.00000000000000	0.00000000000000	0.00000000000000	0.00000000000000	
12.54661400000000	0.71088000000000	707.88038800000004	42.06378300000000	0.15735000000000	0.00000000000000	0.11217600000000	0.00000000000000	0.00000000000000	0.00000000000000	0.00000000000000	0.00000000000000	0.00000000000000	0.00000000000000	12.41562000000000	0.00000000000000	0.00000000000000	0.00000000000000	0.00000000000000	
12.54828200000000	0.15567900000000	708.85420599999998	42.06352100000000	0.15652600000000	0.00000000000000	0.11214400000000	0.00000000000000	0.00000000000000	0.00000000000000	0.00000000000000	0.00000000000000	0.00000000000000	0.00000000000000	12.52214500000000	0.00000000000000	0.00000000000000	0.00000000000000	0.00000000000000	
12.54994900000000	-0.40769200000000	709.84435800000006	42.06320100000000	0.15570200000000	0.00000000000000	0.11211000000000	0.00000000000000	0.00000000000000	0.00000000000000	0.00000000000000	0.00000000000000	0.00000000000000	0.00000000000000	12.63038800000000	0.00000000000000	0.00000000000000	0.00000000000000	0.00000000000000	
12.55161200000000	-0.97896700000000	710.84989800000005	42.06294500000000	0.15487900000000	0.00000000000000	0.11207700000000	0.00000000000000	0.00000000000000	0.00000000000000	0.00000000000000	0.00000000000000	0.00000000000000	0.00000000000000	12.74027100000000	0.00000000000000	0.00000000000000	0.00000000000000	0.00000000000000	
12.55328100000000	-1.55787300000000	711.86999500000002	42.06289000000000	0.15405600000000	0.00000000000000	0.11204400000000	0.00000000000000	0.00000000000000	0.00000000000000	0.00000000000000	0.00000000000000	0.00000000000000	0.00000000000000	12.85171600000000	0.00000000000000	0.00000000000000	0.00000000000000	0.00000000000000	
12.55495000000000	-2.14412300000000	712.90392699999995	42.06318800000000	0.15323300000000	0.00000000000000	0.11201000000000	0.00000000000000	0.00000000000000	0.00000000000000	0.00000000000000	0.00000000000000	0.00000000000000	0.00000000000000	12.96464700000000	0.00000000000000	0.00000000000000	0.00000000000000	0.00000000000000	
12.55661100000000	-2.73742300000000	713.95108100000004	42.06400900000000	0.15240900000000	0.00000000000000	0.11197600000000	0.00000000000000	0.00000000000000	0.00000000000000	0.00000000000000	0.00000000000000	0.00000000000000	0.00000000000000	13.07898500000000	0.00000000000000	0.00000000000000	0.00000000000000	0.00000000000000	
12.55827800000000	-3.33747100000000	715.01095699999996	42.06553500000000	0.15158400000000	0.00000000000000	0.11194300000000	0.00000000000000	0.00000000000000	0.00000000000000	0.00000000000000	0.00000000000000	0.00000000000000	0.00000000000000	13.19465100000000	0.00000000000000	0.00000000000000	0.00000000000000	0.00000000000000	
12.55994700000000	-3.94395300000000	716.08316200000002	42.06796100000000	0.15075800000000	0.00000000000000	0.11190900000000	0.00000000000000	0.00000000000000	0.00000000000000	0.00000000000000	0.00000000000000	0.00000000000000	0.00000000000000	13.31156700000000	0.00000000000000	0.00000000000000	0.00000000000000	0.00000000000000	
12.56161300000000	-4.55655000000000	717.16740600000003	42.07149200000000	0.14993000000000	0.00000000000000	0.11187600000000	0.00000000000000	0.00000000000000	0.00000000000000	0.00000000000000	0.00000000000000	0.00000000000000	0.00000000000000	13.42965300000000	0.00000000000000	0.00000000000000	0.00000000000000	0.00000000000000	
12.56327700000000	-5.17493300000000	718.26350600000001	42.07634700000000	0.14910000000000	0.00000000000000	0.11184200000000	0.00000000000000	0.00000000000000	0.00000000000000	0.00000000000000	0.00000000000000	0.00000000000000	0.00000000000000	13.54882700000000	0.00000000000000	0.00000000000000	0.00000000000000	0.00000000000000	
